<?xml version="1.0" standalone="no"?>
<!DOCTYPE svg PUBLIC "-//W3C//DTD SVG 20010904//EN"
 "http://www.w3.org/TR/2001/REC-SVG-20010904/DTD/svg10.dtd">
<svg version="1.0" xmlns="http://www.w3.org/2000/svg"
 width="640.000000pt" height="640.000000pt" viewBox="0 0 640.000000 640.000000"
 preserveAspectRatio="xMidYMid meet">
<metadata>
Created by potrace 1.16, written by Peter Selinger 2001-2019
</metadata>
<g transform="translate(0.000000,640.000000) scale(0.100000,-0.100000)"
fill="#000000" stroke="none">
<path d="M0 4074 c1 -2266 2 -2326 20 -2341 18 -16 18 -17 2 -30 -15 -11 -15
-14 -2 -23 30 -20 40 0 39 75 -1 106 10 136 36 101 8 -10 12 -23 9 -28 -3 -5
1 -17 10 -27 16 -17 16 -19 1 -25 -13 -5 -15 -13 -10 -38 4 -17 8 -88 9 -156
2 -107 5 -125 20 -134 10 -5 20 -7 23 -4 11 10 12 80 1 93 -5 7 -6 18 -1 25 4
7 8 24 8 38 0 18 5 25 20 25 15 0 19 -6 17 -24 -1 -14 3 -28 10 -32 10 -6 10
-13 3 -26 -16 -26 -11 -85 8 -97 22 -14 52 11 36 30 -14 17 -5 44 16 44 20 0
31 -28 17 -42 -8 -8 -7 -15 6 -24 25 -18 7 -29 -43 -26 -40 1 -45 -1 -45 -19
0 -19 4 -21 44 -15 26 4 47 3 50 -3 9 -14 -15 -26 -54 -26 -25 0 -35 -5 -38
-17 -3 -15 3 -18 45 -15 l48 2 1 -42 c1 -24 -2 -45 -7 -49 -5 -3 -5 -13 1 -23
5 -10 8 -42 6 -70 -1 -29 1 -54 6 -57 4 -3 5 -16 2 -29 -3 -12 -1 -25 4 -29 5
-3 6 -26 1 -58 -5 -33 -5 -56 2 -64 6 -7 7 -19 3 -25 -4 -7 -8 -28 -8 -48 -1
-28 4 -38 24 -48 l24 -12 -28 -11 c-22 -8 -26 -13 -17 -24 6 -7 9 -20 5 -29
-3 -8 -1 -25 6 -36 7 -14 7 -21 0 -21 -7 0 -8 -27 -4 -77 3 -43 5 -84 5 -90
-2 -22 -1 -36 2 -110 l4 -71 -62 -4 c-83 -4 -94 -1 -88 23 3 10 1 19 -5 19 -6
0 -12 -10 -14 -23 -3 -19 -9 -22 -53 -23 -27 -1 -65 -2 -82 -3 l-33 -1 0 -56
0 -56 233 7 c127 3 326 10 441 16 270 12 800 11 849 -2 20 -5 37 -14 37 -19 0
-14 -69 -30 -131 -30 -58 0 -85 -15 -70 -38 4 -6 53 -18 109 -26 113 -16 150
-29 111 -39 -20 -5 -250 -19 -519 -31 -36 -2 -78 -4 -93 -5 -16 0 -25 -5 -22
-11 4 -6 261 -9 708 -8 386 1 687 3 670 5 -18 2 -33 8 -33 12 0 19 -39 51 -62
51 -32 0 -44 15 -51 64 -4 22 -13 44 -22 48 -8 5 -15 16 -15 23 0 8 -5 15 -11
15 -7 0 -8 14 -4 40 4 25 3 40 -3 40 -6 0 -12 -10 -14 -22 -3 -22 -5 -21 -42
15 -34 34 -42 38 -72 32 -33 -6 -34 -5 -28 24 6 27 4 29 -15 24 -15 -4 -21 -1
-21 11 0 12 -6 15 -25 10 -23 -6 -25 -3 -26 27 -1 19 -2 43 -3 54 -1 15 -7 20
-28 18 -24 -2 -28 2 -28 27 0 29 -15 40 -56 40 -16 0 -24 6 -24 18 0 22 -37
55 -70 62 -19 4 -26 14 -32 45 -5 22 -13 44 -18 49 -6 6 -11 21 -11 36 -2 23
-2 23 -6 3 -3 -14 -12 -23 -23 -23 -10 0 -25 -3 -34 -6 -24 -9 -19 14 9 42 34
34 32 42 -12 46 -29 2 -39 8 -41 23 -2 11 -10 27 -17 35 -20 24 -7 150 16 150
5 0 9 24 9 53 -1 51 -16 87 -39 87 -6 0 -22 24 -35 53 -12 28 -30 58 -39 65
-11 9 -14 23 -10 46 5 30 2 34 -22 40 -25 6 -26 9 -20 49 8 48 8 42 6 85 -1
25 -5 32 -18 30 -13 -2 -16 5 -15 37 1 64 14 139 25 146 13 9 0 42 -13 34 -15
-9 -13 -1 20 62 34 65 37 88 14 97 -16 6 -15 28 5 103 13 47 1 78 -31 89 -12
3 -18 16 -18 35 0 27 -2 29 -40 29 -36 0 -40 3 -40 25 0 20 -5 25 -26 25 -14
0 -23 4 -19 10 3 5 17 10 31 10 13 0 24 4 24 9 0 4 -12 6 -26 3 -20 -3 -26 0
-31 17 -4 17 -13 21 -47 21 l-41 0 30 24 30 24 -25 5 c-14 3 -32 6 -40 6 -8 0
-33 4 -55 9 -29 7 -36 11 -23 16 24 11 31 53 15 86 -13 24 -13 30 0 43 14 13
13 16 -4 26 -17 9 -19 16 -13 56 4 25 4 45 1 45 -3 0 1 5 9 10 8 5 32 10 52
10 60 0 138 -86 93 -104 -8 -3 -15 -11 -15 -17 0 -8 21 -9 75 -4 41 4 75 4 75
2 0 -3 -7 -13 -16 -21 -14 -15 -12 -16 27 -16 32 0 47 -6 65 -25 14 -15 34
-25 50 -25 26 0 26 -1 10 -19 -27 -30 -11 -43 40 -35 52 7 60 -8 13 -25 -41
-14 -33 -37 12 -34 50 3 64 -3 48 -23 -20 -24 -18 -55 4 -77 17 -17 25 -18 63
-10 50 11 53 9 23 -16 -18 -14 -20 -21 -11 -37 10 -17 11 -17 12 -1 0 9 5 17
10 17 6 0 10 -8 10 -18 0 -28 32 -52 71 -52 23 0 43 -8 61 -25 15 -14 33 -22
41 -19 8 3 31 6 52 7 32 2 40 7 46 29 8 29 -20 62 -45 52 -9 -3 -19 5 -28 23
-11 24 -20 29 -67 33 -41 4 -55 9 -57 22 -2 20 17 24 138 32 71 4 78 3 100
-21 30 -32 87 -59 141 -68 23 -4 60 -15 82 -25 90 -40 104 -42 179 -35 78 7
99 -2 75 -31 -10 -13 -10 -17 2 -25 21 -13 70 -11 99 4 42 22 96 27 117 12 23
-18 97 -20 87 -3 -5 7 -9 32 -11 57 -1 24 -5 46 -8 49 -3 3 -20 1 -38 -6 -17
-6 -58 -13 -91 -14 -53 -2 -60 0 -77 24 -18 24 -23 26 -81 21 -46 -4 -66 -10
-76 -24 -16 -23 -26 -24 -46 -3 -22 21 -20 31 7 38 19 4 23 12 22 51 0 51 -15
55 -27 6 -8 -31 -28 -35 -28 -6 0 19 -31 55 -48 55 -9 0 -10 -5 -2 -19 17 -33
12 -51 -15 -51 -14 0 -25 -4 -25 -10 0 -17 -49 -23 -81 -9 -29 12 -31 15 -26
55 3 30 0 47 -10 55 -7 7 -13 19 -12 28 2 9 -6 31 -17 49 -17 29 -23 32 -51
27 -37 -7 -85 3 -77 16 3 5 25 9 50 9 40 0 44 2 44 25 0 16 -7 28 -17 31 -40
12 -48 22 -45 53 2 17 -4 46 -13 66 -10 19 -14 42 -11 51 9 24 111 -35 110
-65 0 -12 6 -21 14 -21 11 0 13 8 8 35 -10 50 17 47 41 -5 15 -33 22 -39 39
-35 25 5 34 -10 34 -56 0 -22 7 -32 26 -41 22 -10 28 -10 40 6 13 18 14 18 33
-5 11 -13 20 -27 21 -31 0 -5 7 -8 16 -8 13 0 15 7 11 30 -5 22 -2 32 11 39
16 10 16 10 -2 11 -23 0 -69 48 -63 64 3 7 -4 18 -15 25 -13 8 -17 18 -13 34
6 20 5 21 -8 5 -18 -23 -40 -23 -58 0 -22 26 -59 98 -59 114 0 8 -11 20 -25
26 -14 6 -25 16 -25 22 0 8 -100 11 -100 3 0 -1 16 -11 35 -23 40 -24 44 -44
15 -62 -11 -7 -20 -18 -20 -25 0 -24 -36 -13 -47 15 -7 15 -17 34 -22 42 -5 8
-17 32 -26 53 -9 21 -27 42 -40 47 -12 5 -32 22 -44 39 -12 16 -44 43 -72 60
-28 18 -47 36 -43 42 3 6 -3 20 -15 33 -11 12 -22 33 -23 46 -3 21 2 24 29 26
18 1 40 5 49 8 10 4 21 1 26 -6 5 -8 6 -3 2 14 -4 20 -1 29 14 37 33 18 61 3
67 -38 3 -20 10 -43 14 -51 5 -9 8 -34 8 -57 0 -23 4 -48 9 -55 5 -7 16 -25
24 -40 7 -16 22 -28 32 -28 11 0 24 -12 31 -28 10 -22 17 -27 35 -22 l24 5
-26 28 c-26 28 -35 54 -33 93 2 26 16 25 80 -4 60 -27 57 -27 57 3 0 21 5 25
30 25 23 0 33 -6 42 -25 6 -14 14 -25 18 -25 17 0 28 26 24 54 -4 26 -1 24 20
-19 25 -48 25 -50 7 -70 -10 -11 -17 -25 -14 -32 7 -18 -13 -24 -44 -12 -28
11 -28 11 -6 20 13 4 23 13 23 18 0 19 -21 23 -43 8 -20 -13 -28 -13 -54 -2
-33 14 -43 11 -43 -12 0 -7 11 -13 25 -13 14 0 28 -6 31 -14 3 -8 15 -16 26
-19 13 -4 19 -11 15 -21 -8 -21 12 -31 26 -13 7 8 25 17 40 20 23 4 30 -1 44
-26 11 -23 13 -35 5 -48 -9 -13 -8 -19 4 -23 11 -4 12 -10 5 -25 -9 -16 -7
-20 13 -25 18 -4 25 -14 29 -43 3 -21 8 -45 12 -55 5 -11 0 -18 -17 -24 -19
-6 -16 -9 27 -20 57 -14 64 -12 41 11 -28 28 -21 48 15 41 25 -5 30 -3 27 11
-2 10 -12 19 -23 21 -29 6 -38 17 -30 41 5 17 12 20 32 15 22 -6 25 -4 20 10
-4 11 2 24 18 38 14 12 25 26 25 31 0 15 33 36 56 37 11 0 24 4 30 10 9 9 133
15 184 8 17 -2 25 2 25 12 0 18 -72 37 -94 23 -9 -5 -27 -6 -41 -2 -14 4 -46
7 -72 8 -51 1 -68 -9 -121 -66 -17 -18 -35 -29 -44 -26 -9 3 -16 -2 -20 -15
-6 -24 -30 -32 -61 -21 -31 12 -28 46 8 79 29 27 29 29 12 42 -13 10 -19 28
-20 72 -2 39 -9 66 -21 82 -25 32 -17 58 25 74 35 14 45 30 19 30 -17 0 -20
35 -4 46 6 3 33 -6 61 -21 53 -29 115 -36 129 -13 5 7 9 9 9 5 0 -4 9 -3 20 3
17 9 30 60 15 60 -12 0 -62 -27 -79 -42 -18 -17 -20 -17 -34 3 -8 12 -29 27
-47 35 -30 12 -32 16 -26 46 8 39 26 39 26 0 0 -21 5 -27 22 -27 11 0 25 -3
29 -7 13 -13 34 -9 34 7 0 8 3 15 8 15 4 0 13 9 19 20 11 16 9 25 -8 55 -27
44 -21 58 30 75 31 10 41 18 41 35 0 24 18 45 38 45 15 0 52 37 52 52 0 16
-20 8 -21 -9 0 -11 -3 -13 -6 -5 -8 20 -33 14 -45 -13 -11 -25 -28 -34 -28
-15 0 5 -16 12 -35 16 -33 6 -46 26 -25 39 6 3 10 17 10 30 0 19 -7 25 -34 30
-38 8 -95 59 -77 69 16 10 14 56 -3 56 -7 0 -27 -3 -42 -6 -27 -5 -29 -8 -26
-45 4 -34 1 -39 -16 -39 -12 0 -23 -9 -27 -21 -4 -13 -12 -18 -22 -15 -8 3
-19 6 -24 6 -5 0 -7 22 -5 49 3 36 10 56 28 73 28 27 48 70 48 102 0 12 6 30
13 40 11 14 19 16 55 8 38 -9 42 -8 42 9 0 14 7 19 28 19 26 0 28 2 24 33 -3
17 -12 43 -21 57 -9 13 -16 38 -17 55 0 16 -4 38 -9 48 -6 16 -4 18 16 15 20
-2 26 -11 33 -50 10 -50 26 -65 26 -24 0 13 7 29 15 36 18 15 12 44 -16 74
-25 26 -24 33 7 40 19 5 33 0 55 -19 27 -22 32 -23 45 -10 18 18 28 19 53 3
15 -9 23 -7 44 8 36 26 39 51 14 88 -12 17 -22 32 -23 34 0 1 -22 4 -47 8 -48
5 -53 0 -48 -44 1 -6 -3 -20 -8 -30 -9 -15 -10 -15 -11 -1 0 9 -9 19 -20 22
-30 8 -27 47 4 47 18 0 27 9 40 43 9 23 16 48 16 55 0 7 5 10 10 7 6 -3 10
-17 10 -29 0 -23 22 -51 32 -41 3 3 18 -1 34 -10 16 -8 34 -15 40 -15 6 0 18
-10 26 -22 21 -31 48 -18 48 25 0 23 5 34 15 34 12 0 14 -9 9 -49 l-7 -48 31
0 c36 0 78 37 88 76 9 33 1 39 -29 20 -20 -14 -26 -14 -36 -3 -18 22 -24 73
-12 96 10 18 21 21 76 21 l64 0 -2 -37 c-2 -38 -2 -38 43 -44 25 -3 60 -12 78
-19 26 -9 36 -10 47 0 19 16 45 -3 45 -32 0 -24 38 -21 54 4 8 14 7 20 -7 30
-12 9 -19 31 -22 66 -4 54 6 72 29 52 11 -8 15 -8 18 1 6 17 38 3 38 -16 0
-12 -6 -15 -19 -10 -21 6 -38 -10 -21 -20 5 -3 7 -19 3 -35 -5 -26 -3 -30 16
-30 12 0 31 5 42 11 16 8 23 7 33 -7 9 -12 15 -14 20 -6 4 7 -4 22 -17 34 -20
19 -24 31 -22 76 1 34 7 57 16 63 18 11 32 12 25 0 -8 -12 17 -61 32 -61 28 0
27 -5 34 143 0 16 -6 36 -15 45 -15 14 -18 14 -35 -1 -23 -21 -42 -22 -42 -2
0 8 4 15 9 15 5 0 11 12 14 28 11 47 23 59 47 45 22 -15 47 -17 53 -5 2 4 7
24 11 44 6 31 4 37 -14 43 -13 4 -20 15 -20 30 0 14 -9 29 -20 35 -11 6 -19
19 -18 28 2 11 -3 17 -14 16 -56 -2 -68 -5 -68 -13 0 -19 32 -41 60 -41 25 0
28 -4 32 -40 2 -22 2 -40 0 -40 -1 0 -18 7 -38 15 l-35 14 1 -32 c0 -18 -3
-50 -7 -72 -7 -31 -13 -40 -30 -41 -28 -2 -68 39 -60 60 4 9 13 16 21 16 9 0
18 11 22 25 3 14 9 25 13 25 3 0 12 4 19 9 19 11 -5 61 -30 61 -10 0 -18 4
-18 9 0 4 -12 20 -26 34 -20 20 -23 29 -15 39 7 7 18 22 25 32 18 26 38 12 30
-20 -6 -23 -4 -25 17 -22 26 3 40 38 16 38 -16 0 -25 25 -19 53 2 12 13 17 38
17 27 0 34 4 34 19 0 10 6 21 14 24 7 3 16 15 19 27 5 21 3 22 -30 17 -33 -6
-35 -5 -29 19 4 13 16 34 27 45 26 26 20 43 -17 47 -62 6 -74 12 -74 37 0 23
4 25 45 25 35 0 47 -4 52 -17 13 -40 56 -123 63 -123 22 0 36 38 32 88 -4 47
-6 52 -23 47 -26 -9 -48 11 -42 36 4 15 11 18 27 13 11 -4 28 -8 36 -9 53 -5
93 -57 55 -71 -20 -8 -19 -33 2 -56 15 -17 14 -18 -15 -18 -46 0 -41 -26 5
-33 55 -9 67 5 59 76 -4 44 -2 62 9 73 17 17 9 45 -11 37 -18 -7 -18 18 1 43
19 25 19 34 0 34 -8 0 -15 7 -15 16 0 8 -4 13 -9 10 -4 -3 -6 -17 -3 -31 4
-23 2 -25 -36 -25 -31 0 -43 5 -56 25 -10 16 -33 29 -60 36 -49 12 -60 27 -57
80 2 29 -2 37 -18 42 -35 9 -57 -63 -29 -91 26 -26 -10 -10 -40 18 -37 34 -47
36 -55 16 -3 -8 -22 -22 -41 -31 -27 -13 -36 -24 -36 -42 0 -35 -24 -57 -49
-43 -11 5 -24 9 -28 8 -4 -1 -17 1 -29 5 -19 7 -21 15 -15 58 1 6 32 22 96 50
46 20 74 59 75 101 0 20 5 40 10 43 6 4 37 9 70 11 62 5 102 -8 137 -45 10
-10 33 -22 51 -26 22 -4 37 -16 48 -37 15 -29 16 -29 35 -12 18 16 20 16 37 1
10 -10 24 -17 31 -17 7 0 21 -5 32 -11 15 -7 17 -14 10 -23 -6 -7 -9 -34 -7
-62 3 -43 6 -49 23 -47 34 4 92 43 87 58 -8 20 -47 27 -60 10 -15 -20 -22 -10
-16 20 3 18 11 25 27 25 13 0 25 -6 27 -12 3 -7 15 -13 29 -13 17 0 25 -6 27
-22 4 -28 7 -28 40 -5 50 35 52 35 66 0 14 -31 13 -35 -10 -59 -18 -18 -26
-39 -27 -70 -2 -41 0 -44 28 -49 24 -4 31 -12 40 -43 6 -21 16 -41 22 -45 6
-4 19 -27 29 -52 10 -25 24 -49 31 -53 10 -6 12 -20 7 -53 -5 -36 -3 -49 12
-65 16 -18 16 -26 5 -100 -7 -45 -11 -83 -9 -85 2 -2 18 6 36 16 27 17 31 24
26 46 -4 14 -1 36 6 49 11 20 9 35 -10 94 -17 54 -20 81 -15 120 6 46 5 50
-17 53 -19 2 -23 10 -26 46 -3 35 -7 42 -24 42 -18 0 -20 4 -14 45 7 46 -1 73
-36 111 -15 17 -18 33 -16 75 3 51 2 54 -22 57 -13 2 -37 14 -52 27 -14 12
-43 26 -64 30 -50 9 -150 60 -157 80 -9 21 -147 85 -186 85 -17 0 -48 7 -67
15 -20 8 -39 13 -43 11 -4 -3 -13 -1 -21 4 -12 7 -14 56 -12 289 l2 281 -1690
0 -1691 0 1 -2326z m3075 2204 c9 -67 12 -109 14 -171 1 -25 5 -37 13 -35 12
4 13 10 27 139 9 87 15 109 31 109 8 0 26 -117 21 -135 -2 -5 -3 -14 -2 -20 3
-18 9 -70 10 -78 2 -20 26 2 27 24 0 13 1 65 2 114 3 101 11 126 36 106 9 -8
16 -24 16 -37 0 -12 7 -30 16 -38 8 -9 12 -16 7 -16 -4 0 1 -7 11 -15 18 -13
20 -31 24 -185 l5 -171 -71 6 c-39 2 -90 11 -114 19 -27 10 -46 12 -52 6 -14
-14 -37 -12 -56 5 -12 11 -41 16 -105 16 l-87 1 6 134 c4 73 9 141 12 149 14
36 22 8 28 -92 4 -60 8 -121 9 -138 2 -24 6 -29 22 -27 11 2 22 6 24 8 2 2 4
69 5 149 0 79 4 145 9 145 4 0 8 -13 9 -30 3 -51 7 -83 17 -130 5 -25 7 -48 4
-53 -2 -4 1 -15 8 -23 20 -25 27 0 35 128 3 65 11 121 16 124 5 3 4 12 -2 19
-12 14 -5 55 9 55 5 0 12 -28 16 -62z m-1749 -1180 c1 -73 8 -189 14 -258 15
-157 12 -195 -15 -195 -19 0 -20 8 -25 164 -3 89 -2 168 2 174 4 6 4 18 0 26
-12 28 -2 245 10 233 7 -7 13 -64 14 -144z m1914 112 c11 -11 20 -27 20 -35 0
-19 33 -19 70 0 28 14 30 14 45 -8 22 -34 11 -59 -20 -45 -25 11 -55 5 -55
-11 0 -5 14 -12 31 -16 28 -6 29 -8 15 -24 -9 -10 -16 -22 -16 -28 0 -12 -23
-23 -45 -23 -8 0 -19 18 -25 41 -11 41 -26 61 -71 93 -17 13 -20 20 -11 23 7
3 17 16 22 29 11 29 15 29 40 4z m-2005 -141 c11 -203 16 -637 7 -643 -20 -12
-26 65 -37 449 -5 195 1 303 17 287 4 -4 10 -46 13 -93z m488 -988 c37 -14 57
-39 57 -71 0 -16 5 -32 10 -35 6 -3 10 -18 10 -33 0 -37 24 -112 37 -120 19
-12 11 -76 -10 -80 -12 -2 -20 4 -24 16 -3 11 -13 22 -24 25 -10 3 -21 11 -23
19 -10 37 -26 96 -31 120 -4 20 -12 28 -31 30 -22 2 -29 11 -40 48 -8 25 -14
46 -14 46 0 1 9 4 20 7 11 3 20 12 20 21 0 18 9 20 43 7z m-23 -475 c6 -8 31
-24 55 -36 30 -14 44 -28 48 -46 5 -27 -12 -41 -38 -30 -8 3 -15 1 -15 -3 0
-5 7 -11 15 -15 19 -7 19 -34 0 -80 -18 -44 -56 -57 -96 -34 -26 15 -28 15
-48 -8 -29 -33 -60 -31 -73 4 -10 25 -17 29 -45 28 -31 -1 -36 3 -47 35 l-13
36 46 29 c25 16 57 31 71 34 18 4 26 13 30 34 3 20 16 34 40 46 44 23 55 23
70 6z m780 -18 c16 -10 24 -10 40 0 17 11 20 10 20 -8 0 -13 -9 -22 -25 -26
-26 -7 -35 -34 -11 -34 8 0 18 -5 22 -11 10 -17 -37 -49 -62 -43 -16 4 -26 -3
-42 -30 -12 -20 -28 -36 -35 -36 -18 0 -43 28 -52 59 -7 21 -5 23 18 17 28 -7
77 25 77 51 0 13 3 13 15 3 13 -10 18 -11 28 -1 9 10 8 15 -7 26 -10 8 -23 16
-29 18 -12 4 0 27 14 27 5 0 18 -6 29 -12z"/>
<path d="M3426 6223 c2 -98 4 -187 4 -198 0 -12 3 -16 8 -9 4 7 18 14 31 15
22 4 24 8 27 89 2 47 6 113 9 148 7 64 6 63 60 66 15 1 21 9 23 34 l3 32 -84
0 -85 0 4 -177z"/>
<path d="M4278 6053 c-2 -192 -1 -402 2 -468 3 -66 1 -130 -4 -142 -11 -28
-63 -53 -110 -53 -32 0 -36 -3 -36 -24 0 -34 11 -38 94 -41 70 -2 72 -1 96 30
13 17 48 42 77 56 29 13 62 36 73 52 11 15 26 27 32 27 6 0 21 12 34 26 13 14
29 22 34 19 6 -3 10 -1 10 6 0 23 -130 -11 -201 -54 -25 -15 -52 -27 -60 -27
-12 0 -14 70 -11 470 3 418 2 470 -12 470 -14 0 -16 -43 -18 -347z"/>
<path d="M5209 6363 c-1 -21 0 -223 1 -449 2 -429 -4 -500 -37 -487 -13 5 -15
2 -10 -18 4 -13 7 -30 7 -36 0 -7 7 -13 15 -13 8 0 15 -4 15 -10 0 -5 13 -16
29 -24 20 -11 32 -28 42 -60 7 -25 17 -42 21 -40 4 3 8 0 8 -6 0 -12 48 -60
60 -60 21 0 17 35 -8 72 -39 59 -39 60 -54 96 -7 17 -20 32 -28 32 -42 1 -42
-7 -40 529 0 348 -3 511 -10 511 -5 0 -10 -17 -11 -37z"/>
<path d="M6131 6155 c-1 -137 -4 -327 -7 -421 -4 -125 -3 -174 6 -179 17 -11
22 0 23 47 2 205 -7 722 -13 758 -5 27 -8 -53 -9 -205z"/>
<path d="M6361 5604 c-19 -13 -44 -24 -57 -24 -13 0 -25 -4 -29 -9 -9 -16
-291 -151 -314 -151 -31 0 -59 -16 -103 -57 -20 -19 -47 -40 -59 -47 -29 -14
-47 -71 -48 -148 -1 -32 -5 -58 -11 -58 -5 0 -7 7 -4 15 4 9 0 15 -10 15 -15
0 -21 17 -17 48 3 22 -43 9 -53 -14 -7 -16 -18 -21 -40 -20 -28 1 -31 -2 -37
-37 -10 -64 -49 -78 -49 -17 0 34 -13 45 -37 31 -16 -9 -16 -10 -1 -11 21 0
17 -26 -8 -45 -30 -23 -44 -18 -44 15 0 28 -22 50 -49 50 -16 0 -36 -79 -25
-98 14 -25 5 -132 -11 -132 -8 0 -21 -7 -29 -16 -9 -8 -17 -12 -18 -7 0 4 -2
13 -3 18 -2 6 -3 22 -4 38 -3 73 -121 -24 -121 -100 0 -26 -5 -36 -23 -42 -27
-11 -49 -53 -67 -130 -9 -37 -18 -55 -31 -58 -11 -3 -19 -9 -19 -14 0 -5 -5
-9 -11 -9 -7 0 -80 -33 -163 -74 -176 -87 -229 -106 -295 -106 -26 0 -50 -3
-53 -6 -13 -13 17 -64 42 -69 18 -5 33 -23 55 -67 28 -58 81 -108 114 -108 8
0 22 -6 30 -14 27 -24 66 -29 81 -11 11 14 10 23 -10 63 -13 26 -24 70 -26
100 -3 49 -1 52 20 52 35 0 49 -23 40 -62 -9 -38 -7 -94 5 -123 27 -66 32 -94
19 -115 -11 -18 -10 -23 5 -35 13 -9 17 -24 16 -53 -3 -44 10 -65 49 -85 17
-8 29 -23 33 -44 7 -34 26 -69 54 -97 17 -16 60 -21 90 -10 14 6 14 9 2 23
-20 23 -29 81 -16 97 17 21 2 85 -22 91 -10 3 -19 9 -19 14 0 9 10 10 88 11
37 0 42 3 42 24 0 12 5 26 10 29 18 11 11 45 -8 45 -28 0 -30 6 -17 57 13 51
10 83 -9 83 -11 0 -16 54 -5 64 12 12 69 -52 75 -83 4 -17 14 -33 25 -36 21
-7 27 -36 18 -85 -4 -19 -6 -61 -5 -93 2 -45 0 -57 -11 -53 -8 3 -15 -4 -19
-19 -4 -16 -25 -35 -61 -55 -86 -49 -46 -58 83 -19 35 10 59 5 89 -22 11 -10
36 -19 55 -21 26 -2 36 -8 38 -23 2 -11 9 -33 17 -50 22 -50 22 -102 0 -119
-19 -13 -18 -15 18 -21 44 -9 45 -9 57 -77 7 -35 18 -60 34 -73 31 -26 49 -62
36 -70 -17 -10 -11 -25 10 -25 11 0 20 -3 21 -7 0 -5 2 -16 5 -25 2 -10 5 -25
7 -34 2 -9 11 -22 20 -29 9 -7 17 -19 17 -28 0 -8 6 -17 13 -20 18 -7 -1 -22
-45 -37 -46 -14 -48 -27 -7 -42 30 -10 30 -11 24 -63 -5 -33 -2 -67 5 -90 10
-31 10 -39 -4 -54 -16 -18 -13 -49 7 -62 5 -3 2 -9 -7 -12 -9 -4 -16 -2 -16 3
0 15 -17 12 -23 -5 -4 -8 0 -27 8 -41 12 -24 12 -29 -1 -38 -12 -9 -13 -23 -6
-74 7 -50 6 -64 -5 -71 -18 -10 -7 -61 13 -61 10 0 12 -11 8 -47 -8 -69 -9
-70 -48 -77 -33 -6 -35 -9 -25 -28 11 -20 5 -30 -26 -41 -5 -2 5 -20 23 -41
36 -41 37 -47 20 -64 -16 -16 -37 -15 -72 3 -41 22 -58 19 -54 -7 2 -14 15
-28 34 -37 30 -13 32 -16 38 -95 7 -78 6 -81 -19 -99 -19 -14 -25 -27 -25 -57
0 -21 -5 -40 -12 -42 -8 -3 -7 -16 5 -46 23 -58 22 -69 -13 -76 -17 -3 -30 -9
-29 -13 7 -41 -5 -69 -41 -103 -22 -20 -40 -45 -40 -56 0 -10 -12 -37 -25 -59
-30 -48 -30 -52 -6 -60 12 -3 18 -12 15 -20 -3 -8 2 -28 12 -44 17 -28 17 -31
1 -49 -24 -26 -21 -53 8 -81 14 -13 25 -34 25 -47 0 -30 -7 -30 -38 -2 l-24
23 7 -25 c7 -25 27 -74 47 -117 13 -26 2 -47 -20 -38 -9 3 -31 -7 -53 -25 -21
-16 -45 -30 -53 -30 -24 0 -19 -37 5 -43 12 -3 18 -10 14 -16 -3 -6 -1 -11 6
-11 7 0 10 -3 7 -6 -7 -7 -50 14 -60 29 -10 16 -38 -11 -38 -37 0 -12 4 -26 9
-31 15 -15 1 -65 -18 -66 -9 -1 -27 -2 -41 -2 -15 -1 -29 -11 -37 -27 -7 -14
-19 -24 -28 -22 -8 2 -15 -2 -15 -7 0 -21 -46 -80 -62 -81 -21 0 -37 -27 -31
-51 4 -15 0 -19 -21 -19 -23 0 -26 -4 -24 -27 3 -24 -2 -29 -57 -48 -58 -21
-60 -23 -63 -59 -3 -32 -6 -37 -23 -33 -11 3 -23 -1 -29 -11 -9 -15 -13 -13
-35 13 -24 29 -25 29 -39 10 -30 -40 -18 -80 30 -95 29 -10 34 -16 34 -42 0
-31 -5 -33 -54 -13 -15 7 -17 5 -11 -13 7 -25 3 -27 -25 -10 -16 10 -26 10
-52 -1 -18 -7 -45 -16 -60 -18 -16 -3 -28 -10 -28 -15 0 -6 -7 -7 -16 -4 -33
13 -58 -50 -30 -73 15 -13 18 -50 4 -52 -4 -1 -12 -3 -18 -4 -5 -1 -19 -3 -29
-4 -27 -2 -31 -20 -17 -82 l13 -54 976 -3 977 -2 0 2815 c0 1548 -1 2815 -2
2814 -2 0 -18 -12 -37 -25z m-1145 -1159 c10 -8 26 -15 35 -15 9 0 22 -6 29
-14 6 -8 21 -16 33 -18 18 -2 21 -9 19 -31 -2 -16 2 -35 8 -42 6 -7 10 -19 10
-27 -4 -28 13 -57 41 -68 27 -12 41 -40 19 -40 -5 0 -10 -7 -10 -15 0 -8 -5
-15 -12 -15 -6 0 -8 3 -5 7 12 11 -25 43 -49 43 -25 0 -45 21 -26 28 18 6 14
20 -6 27 -16 5 -51 79 -45 96 1 3 -6 5 -15 5 -63 0 -83 5 -88 22 -3 9 -10 25
-15 35 -5 10 -7 22 -4 27 9 15 59 12 81 -5z"/>
<path d="M4592 5338 c-6 -7 -13 -25 -17 -39 -7 -27 -97 -109 -121 -109 -15 0
-49 -54 -58 -92 -3 -16 -11 -28 -16 -28 -5 0 -14 -9 -19 -19 -10 -17 -8 -18
22 -11 17 4 40 11 50 15 14 6 17 2 17 -19 0 -32 21 -34 60 -6 32 23 114 181
124 240 13 69 12 75 -10 78 -11 2 -26 -3 -32 -10z"/>
<path d="M4036 4346 c-18 -15 -38 -23 -52 -20 -15 3 -39 -7 -66 -26 -30 -21
-59 -32 -98 -35 -30 -3 -65 -13 -78 -21 -31 -20 -80 -11 -62 11 19 23 0 18
-36 -10 -19 -14 -46 -25 -64 -25 -26 0 -31 4 -36 30 -4 16 -11 27 -16 24 -5
-4 -22 6 -37 20 l-28 27 -25 -21 c-15 -11 -39 -20 -56 -20 -16 0 -46 -11 -67
-25 -21 -15 -44 -23 -55 -20 -23 7 -50 -4 -50 -21 0 -14 15 -19 35 -13 6 1 65
3 132 3 l122 1 -2 -32 c-2 -17 -19 -55 -40 -85 -20 -30 -37 -60 -37 -66 0 -6
-8 -16 -17 -21 -10 -5 -40 -30 -67 -54 -66 -61 -135 -95 -208 -101 -55 -5 -98
-31 -98 -58 0 -15 -5 -18 -21 -13 -13 4 -27 1 -37 -9 -9 -9 -30 -27 -46 -41
-17 -15 -26 -30 -22 -40 6 -17 26 -21 26 -5 0 11 53 40 75 40 21 0 19 -10 -10
-43 -14 -16 -38 -30 -53 -31 -38 -4 -34 -28 7 -39 28 -7 39 -5 60 13 33 27
111 63 119 56 3 -4 -7 -19 -21 -34 -15 -16 -27 -38 -27 -50 0 -18 6 -22 30
-22 24 0 33 6 40 26 7 18 15 24 26 20 21 -8 44 11 44 35 0 10 10 23 21 30 12
6 36 25 52 43 37 37 66 56 110 70 9 3 17 12 17 21 0 9 10 29 22 45 26 36 72
40 110 11 45 -36 109 -37 66 -2 -58 48 -78 61 -101 67 -15 3 -32 15 -38 26
-13 24 -3 74 17 82 8 3 14 14 14 24 0 11 15 31 33 44 17 14 46 39 64 55 39 37
105 57 125 38 7 -7 36 -18 63 -24 58 -14 95 -36 95 -55 0 -7 12 -26 26 -41
l27 -29 -23 -18 c-12 -10 -36 -19 -54 -19 -23 -1 -25 -3 -8 -6 25 -5 30 -23 7
-23 -8 0 -15 -2 -15 -5 0 -14 31 -64 42 -68 7 -3 -2 -12 -22 -21 l-35 -17 31
6 c21 4 35 1 44 -10 24 -28 42 -19 34 20 -6 33 -4 35 35 51 23 9 41 20 41 24
0 4 23 16 51 26 35 13 56 28 70 51 17 27 27 33 55 33 30 0 34 -3 34 -25 0 -27
17 -34 26 -10 4 9 19 15 35 15 27 0 28 2 22 32 -5 27 -4 30 11 25 10 -4 22 -7
27 -7 5 0 9 -9 9 -20 0 -12 -7 -20 -16 -20 -9 0 -14 -6 -12 -12 3 -7 34 -17
69 -23 39 -6 78 -19 98 -34 l33 -24 -4 24 c-2 16 -12 25 -35 31 -32 8 -44 30
-23 43 18 11 11 35 -14 44 -13 5 -26 17 -30 26 -10 26 -7 75 4 75 6 0 10 6 10
13 0 9 -28 12 -115 10 -63 -1 -115 0 -115 2 0 2 4 15 10 29 8 23 6 28 -20 41
-16 8 -43 15 -60 15 -18 0 -37 8 -47 20 -21 25 -21 25 -57 -4z"/>
<path d="M4738 4042 c-41 -25 -45 -45 -8 -40 19 3 35 -1 44 -11 19 -22 31
-178 15 -197 -9 -11 -8 -18 5 -32 21 -24 20 -51 -4 -82 -20 -26 -26 -50 -12
-50 11 0 33 40 28 49 -10 15 46 3 65 -15 25 -23 24 -48 -3 -66 -20 -13 -21
-19 -13 -44 14 -39 39 -41 74 -7 23 23 27 33 19 47 -7 12 -6 22 5 34 28 33 26
59 -4 88 -16 16 -28 33 -25 40 2 6 0 16 -6 22 -8 8 -8 15 0 25 9 11 5 21 -18
47 -20 22 -30 44 -30 65 0 17 -4 35 -9 41 -5 5 -11 20 -13 34 -2 17 -10 26
-25 28 -12 2 -25 12 -28 23 -8 23 -21 23 -57 1z"/>
<path d="M4204 3965 c-19 -19 -35 -25 -69 -25 -46 0 -51 -4 -35 -30 6 -10 4
-20 -7 -32 -15 -17 -15 -21 5 -48 12 -16 22 -38 22 -49 0 -25 -34 -44 -68 -38
-13 3 -39 1 -56 -4 -26 -8 -34 -6 -48 12 -10 12 -18 30 -18 40 0 12 -10 23
-26 29 -35 14 -35 14 -29 -22 12 -83 18 -96 37 -101 16 -5 19 -11 13 -36 -6
-29 -5 -31 24 -31 42 0 45 -13 11 -46 -16 -16 -30 -34 -30 -41 0 -6 -22 -24
-50 -40 -45 -25 -67 -49 -56 -60 2 -2 18 -6 36 -8 32 -4 70 -37 70 -60 0 -7
-9 -15 -20 -18 -25 -6 -37 -36 -20 -47 9 -6 4 -13 -18 -24 -40 -21 -60 -54
-37 -63 21 -7 90 15 121 40 13 10 28 15 34 12 6 -4 10 5 10 20 0 31 53 68 88
60 16 -4 30 2 50 23 29 30 71 52 101 52 10 0 24 7 31 15 10 13 9 19 -5 35 -15
17 -16 24 -6 47 18 40 0 48 -49 23 -49 -25 -58 -22 -34 15 19 29 51 45 89 45
13 0 37 11 53 25 17 14 35 25 41 25 14 0 15 57 1 65 -6 4 -7 11 -4 17 11 18
12 70 2 106 -7 25 -15 32 -34 32 -14 0 -34 5 -45 11 -16 8 -19 16 -13 46 5 25
3 38 -7 44 -21 13 -28 11 -55 -16z m108 -151 c3 -2 1 -19 -4 -37 -6 -17 -12
-36 -13 -42 -1 -5 -28 -27 -59 -49 -46 -31 -66 -39 -111 -41 -38 -1 -52 1 -48
9 19 31 54 68 77 81 10 6 21 26 25 45 6 30 12 36 41 41 32 5 75 2 92 -7z"/>
<path d="M3745 3051 c-22 -4 -62 -19 -88 -34 -26 -15 -54 -27 -63 -27 -8 0
-32 -9 -52 -19 -49 -25 -112 -37 -112 -22 0 16 -15 14 -66 -9 -24 -11 -58 -23
-74 -27 -17 -3 -30 -12 -30 -20 0 -11 7 -14 23 -10 73 19 77 19 77 5 0 -8 -20
-19 -47 -27 -27 -8 -52 -17 -58 -21 -5 -4 -36 -17 -67 -29 -32 -13 -63 -30
-70 -38 -11 -14 -7 -15 32 -8 24 4 68 16 98 26 30 10 58 16 62 14 5 -3 32 3
62 14 29 10 82 26 118 36 101 27 164 47 175 55 6 4 34 15 63 25 70 22 60 32
-12 11 -41 -12 -65 -14 -89 -7 -28 8 -29 9 -7 10 14 1 36 8 50 16 14 8 44 24
68 35 23 12 42 25 42 30 0 6 7 10 15 10 8 0 15 5 15 10 0 11 -5 11 -65 1z"/>
<path d="M3595 2840 c-16 -5 -48 -14 -70 -20 -22 -6 -59 -15 -82 -20 -57 -12
-83 -30 -83 -58 0 -15 -8 -26 -25 -32 -14 -5 -25 -14 -25 -20 0 -14 3 -13 78
18 37 16 85 32 107 36 21 4 51 13 65 20 14 7 55 21 93 31 79 21 83 32 5 15
-29 -7 -64 -10 -78 -8 -22 3 -21 5 15 17 71 24 71 40 0 21z"/>
<path d="M4330 2569 c-47 -4 -96 -12 -110 -18 l-25 -10 29 0 c24 -1 27 -3 16
-16 -11 -13 -8 -15 13 -15 46 0 57 -10 57 -51 0 -21 3 -39 6 -39 18 0 44 24
44 40 0 11 12 27 28 36 109 67 109 67 82 75 -30 8 -32 8 -140 -2z"/>
<path d="M1988 2103 c-13 -3 -18 -15 -18 -41 0 -58 11 -67 79 -67 33 0 63 -3
67 -7 4 -5 18 -8 32 -8 14 0 30 -7 36 -16 15 -20 45 -8 52 22 8 33 1 40 -64
59 -31 9 -65 21 -74 26 -10 5 -24 9 -32 9 -7 0 -19 7 -26 15 -13 15 -21 16
-52 8z"/>
<path d="M2979 1584 c-3 -24 5 -50 19 -62 16 -13 16 -13 0 -8 -19 6 -26 -18
-8 -29 6 -3 10 -13 10 -20 0 -15 82 -97 104 -104 6 -2 18 -9 26 -16 16 -13 50
-16 50 -4 0 4 8 10 18 12 16 4 16 5 -1 6 -26 2 -86 60 -103 100 -8 18 -13 46
-12 60 3 35 -6 47 -39 54 -16 3 -36 9 -45 12 -10 4 -19 3 -19 -1z"/>
<path d="M3661 80 c-28 -24 -40 -25 -77 -5 -43 22 -57 19 -50 -9 4 -15 0 -28
-9 -36 -8 -7 -15 -16 -15 -21 0 -5 96 -9 214 -9 235 0 227 -2 223 59 -3 35
-18 35 -57 1 -18 -16 -37 -30 -41 -30 -5 0 -15 12 -23 28 l-14 27 -7 -27 c-7
-28 -28 -37 -40 -18 -5 7 -11 8 -19 1 -16 -14 -33 -1 -41 32 -8 32 -12 33 -44
7z"/>
</g>
</svg>
